<?xml version="1.0" standalone="no"?>
<!DOCTYPE svg PUBLIC "-//W3C//DTD SVG 20010904//EN"
 "http://www.w3.org/TR/2001/REC-SVG-20010904/DTD/svg10.dtd">
<svg version="1.0" xmlns="http://www.w3.org/2000/svg"
 width="700.000000pt" height="700.000000pt" viewBox="0 0 700.000000 700.000000"
 preserveAspectRatio="xMidYMid meet">
<metadata>
Created by potrace 1.11, written by Peter Selinger 2001-2013
</metadata>
<g transform="translate(0.000000,700.000000) scale(0.100000,-0.100000)"
fill="#000000" stroke="none">
<path d="M1405 6122 c-150 -20 -254 -70 -356 -171 -82 -82 -134 -174 -160
-281 -20 -83 -21 -4211 -1 -4320 40 -221 220 -408 442 -461 83 -20 4211 -21
4320 -1 211 38 389 200 452 412 16 53 20 101 22 258 l2 192 -1345 0 c-1315 0
-1348 1 -1426 20 -226 57 -406 260 -432 488 -4 31 -6 604 -6 1272 0 1142 1
1219 18 1280 46 165 149 295 296 373 25 13 57 27 70 32 13 4 26 8 29 9 5 3 79
19 95 21 6 1 616 3 1356 3 l1345 2 -2 193 c-2 165 -5 202 -24 262 -65 210
-239 367 -452 411 -30 7 -4199 13 -4243 6z"/>
<path d="M3500 3500 l0 -1167 1453 2 c798 1 1455 3 1458 3 4 2 5 2305 1 2323
-1 3 -657 5 -1457 5 l-1455 0 0 -1166z m1290 418 c187 -59 311 -225 311 -418
-1 -387 -463 -579 -740 -308 -90 88 -132 199 -126 328 5 121 41 203 124 286
111 111 288 157 431 112z"/>
</g>
</svg>
